<svg version="1.1" xmlns="http://www.w3.org/2000/svg" xmlns:xlink="http://www.w3.org/1999/xlink" x="0px" y="0px"
     viewBox="0 0 660 660" style="enable-background:new 0 0 660 660;" xml:space="preserve">
  <style type="text/css">
    .st0{fill:#FF6762;}
    .st1{fill:#FF8364;}
    .st2{fill:#FA8072;}
    .st3{fill:url(#SVGID_1_);}
    #finalFill {
      fill: url(#SVGID_00000003065917200258295930000015943409388660150945_);
    }
    @media (prefers-color-scheme: dark) {
      #finalFill { fill: url(#SVGID_00000014607027599513839190000013103605349976477590_); }
    }
  </style>
  <g>
    <path class="st0" d="M331.8,124.4l194,49c1.3-2.1,2.9-4,4.5-6.2c5.9-8.6,11.8-17.1,17.7-25.7c0.8-1.3,1.9-2.7,2.7-4
      c4.8-7,9.4-14.2,13.9-21.1c1.3-2.1,2.9-4.5,4.3-6.7c4-6.4,8.3-13.1,12.3-19.5c1.3-2.4,2.9-4.5,4.3-7c5.4-8.6,10.4-17.4,15.5-26
      l1.1-1.9h-7c-24.9,25.2-53.5,53-80.3,76L331.8,84.8L130.2,136l3.7,38.8L331.8,124.4z"/>
      <path class="st1" d="M331.8,124.4l194,49c1.3-2.1,2.9-4,4.5-6.2c5.9-8.6,11.8-17.1,17.7-25.7c0.8-1.3,1.9-2.7,2.7-4
      c4.8-7,9.4-14.2,13.9-21.1c1.3-2.1,2.9-4.5,4.3-6.7c4-6.4,8.3-13.1,12.3-19.5c1.3-2.4,2.9-4.5,4.3-7c5.4-8.6,10.4-17.4,15.5-26
      l1.1-1.9h-7c-24.9,25.2-53.5,53-80.3,76L331.8,84.8L130.2,136l3.7,38.8L331.8,124.4z"/>
      <path class="st2" d="M331.8,124.4l194,49c1.3-2.1,2.9-4,4.5-6.2c5.9-8.6,11.8-17.1,17.7-25.7c0.8-1.3,1.9-2.7,2.7-4
      c4.8-7,9.4-14.2,13.9-21.1c1.3-2.1,2.9-4.5,4.3-6.7c4-6.4,8.3-13.1,12.3-19.5c1.3-2.4,2.9-4.5,4.3-7c5.4-8.6,10.4-17.4,15.5-26
      l1.1-1.9h-7c-24.9,25.2-53.5,53-80.3,76L331.8,84.8L130.2,136l3.7,38.8L331.8,124.4z"/>

      <radialGradient id="SVGID_1_" cx="67.3278" cy="530.1622" r="1" gradientTransform="matrix(354.637 0 0 -354.637 -23373.8418 188212.8281)" gradientUnits="userSpaceOnUse">
      <stop offset="0" style="stop-color:#0DD7FA"/>
        <stop offset="1" style="stop-color:#2A76D1"/>
    </radialGradient>

      <path class="st3" d="M212.7,496.5c110.3-83.8,208.2-182.3,291.7-293.3l-172.6-43.6l-194.3,49.2L150,340.7
      C155.4,398.2,177.6,452,212.7,496.5z"/>

      <radialGradient id="SVGID_00000003065917200258295930000015943409388660150945_" cx="67.2977" cy="530.1263" r="1" gradientTransform="matrix(426.911 0 0 -426.911 -28206.3359 226520.3281)" gradientUnits="userSpaceOnUse">
        <stop offset="0" style="stop-color:#2A76D2;@media (prefers-color-scheme: dark) {stop-color:#FFFFFF;}"/>
        <stop offset="1" style="stop-color:#00327C;@media (prefers-color-scheme: dark) {stop-color:#6DAFFF;}"/>
      </radialGradient>

      <radialGradient id="SVGID_00000014607027599513839190000013103605349976477590_" cx="3.7374" cy="55.4205" r="1" gradientTransform="matrix(-324.5764 339.6736 -339.3229 -324.2414 20488.7285 16964.502)" gradientUnits="userSpaceOnUse">
        <stop offset="0" style="stop-color:#FFFFFF"/>
        <stop offset="1" style="stop-color:#6DAFFF"/>
      </radialGradient>

      <path id="finalFill" d="M170.9,580.2c-0.8,0.5-1.6,1.3-2.4,1.9
      c-7.5,5.6-15,11.2-22.5,16.9v4.5c8.6-3.5,17.1-6.7,25.4-10.2l36.1-15.8c20.1-9.1,39.9-18.5,59.1-28.6c5.9,4.5,12.3,8.8,18.5,12.8
      l46.3,29.4l46.3-29.4c76.8-49,126.9-130.6,135.4-221.3l12.6-131.9l-9.6-2.4C423.3,350.1,306.9,476.1,170.9,580.2z"/>
  </g>
</svg>
