<?xml version="1.0" standalone="no"?>
<!DOCTYPE svg PUBLIC "-//W3C//DTD SVG 20010904//EN"
 "http://www.w3.org/TR/2001/REC-SVG-20010904/DTD/svg10.dtd">
<svg version="1.0" xmlns="http://www.w3.org/2000/svg"
 width="512.000000pt" height="512.000000pt" viewBox="0 0 512.000000 512.000000"
 preserveAspectRatio="xMidYMid meet">
<metadata>
Created by potrace 1.14, written by Peter Selinger 2001-2017
</metadata>
<g transform="translate(0.000000,512.000000) scale(0.100000,-0.100000)"
fill="#000000" stroke="none">
<path d="M4720 4847 c-113 -111 -248 -240 -299 -287 -52 -47 -99 -89 -105 -95
-6 -5 -30 -27 -53 -47 l-42 -37 -313 80 c-172 44 -452 115 -623 159 -170 43
-392 99 -492 125 l-182 46 -298 -76 c-531 -136 -832 -212 -1123 -285 -157 -39
-300 -76 -318 -81 l-32 -11 6 -66 c3 -37 7 -77 9 -89 2 -12 7 -59 11 -103 5
-61 10 -80 21 -80 9 0 137 31 287 69 260 67 1056 270 1316 335 l124 32 151
-38 c1449 -368 1545 -391 1566 -372 19 17 333 485 437 649 73 117 189 311 207
345 l16 30 -33 0 c-29 -1 -56 -24 -238 -203z"/>
<path d="M2405 4080 c-104 -27 -199 -52 -210 -54 -11 -3 -117 -29 -235 -60
-118 -30 -395 -100 -615 -156 -220 -55 -408 -103 -419 -106 -17 -6 -18 -14
-11 -93 3 -47 8 -97 10 -111 1 -14 6 -60 10 -103 3 -43 8 -88 10 -100 2 -12 6
-61 10 -109 3 -47 7 -94 9 -105 2 -10 7 -54 11 -98 3 -44 8 -93 10 -110 2 -16
7 -64 10 -105 3 -41 7 -84 9 -95 2 -11 7 -58 10 -105 9 -110 13 -137 41 -285
31 -170 73 -307 160 -525 73 -182 325 -592 358 -582 13 4 358 273 387 302 3 3
61 52 130 110 69 57 127 107 130 110 3 3 39 34 80 70 41 36 95 84 120 107 25
23 56 51 70 63 103 89 524 503 667 656 21 22 65 70 98 105 33 35 98 107 145
159 47 52 90 100 96 106 5 6 30 35 55 64 24 29 49 58 54 64 6 6 44 52 85 101
41 50 77 92 81 95 3 3 41 50 85 105 43 55 87 109 96 120 37 44 176 230 174
232 -2 2 -814 209 -856 218 -8 2 -94 24 -190 49 -96 25 -184 47 -195 50 -46
12 -192 48 -210 52 -59 14 -96 9 -270 -36z"/>
<path d="M4137 3578 c-158 -238 -462 -666 -487 -688 -3 -3 -53 -66 -110 -140
-96 -124 -407 -501 -465 -564 -13 -13 -184 -203 -240 -266 -73 -82 -598 -604
-709 -706 -60 -54 -114 -104 -120 -110 -22 -21 -274 -240 -321 -279 -27 -22
-53 -45 -59 -50 -44 -42 -389 -314 -548 -433 -66 -49 -98 -79 -98 -92 0 -19 3
-19 68 6 37 15 83 32 103 40 20 7 60 24 90 37 30 14 146 66 259 116 113 50
281 128 375 175 l169 84 36 -27 c19 -15 67 -48 105 -73 283 -182 412 -262 425
-262 14 0 321 191 469 292 283 192 537 449 709 717 25 39 53 82 63 96 33 50
148 285 187 384 61 155 120 358 136 470 4 22 11 65 16 95 5 30 12 87 15 125 4
39 8 81 10 95 2 14 7 61 10 105 4 44 9 94 11 110 2 17 6 64 10 105 4 41 8 86
9 100 1 14 6 61 9 105 4 44 9 94 11 110 3 17 7 62 10 100 3 39 8 86 10 105 2
19 7 64 10 100 3 36 8 81 10 101 5 34 4 36 -33 47 -22 7 -42 12 -45 12 -3 0
-48 -64 -100 -142z"/>
</g>
</svg>
