<?xml version="1.0" encoding="UTF-8"?>
<svg xmlns="http://www.w3.org/2000/svg" xmlns:xlink="http://www.w3.org/1999/xlink" width="794.2pt" height="199.6pt" viewBox="0 0 794.2 199.6" version="1.1">
<defs>
<clipPath id="clip1">
  <path d="M 594 0 L 794.199219 0 L 794.199219 199.601563 L 594 199.601563 Z M 594 0 "/>
</clipPath>
</defs>
<g id="surface1">
<path style=" stroke:none;fill-rule:evenodd;fill:rgb(0%,28.24707%,55.664063%);fill-opacity:1;" d="M 355.957031 100.023438 L 355.957031 140.808594 C 355.957031 144.078125 357.097656 145.722656 359.304688 145.722656 C 361.585938 145.722656 359.503906 146.851563 364.382813 143.46875 L 364.382813 153.621094 C 360.074219 156.40625 356.609375 156.851563 353.980469 157.871094 C 351.375 158.878906 348.640625 159.402344 345.789063 159.402344 C 337.667969 159.402344 332.859375 156.195313 331.398438 149.785156 C 319.996094 158.621094 297.777344 163.703125 285.066406 152.820313 C 278.507813 147.207031 274.613281 127.722656 279.210938 118.394531 C 282.363281 111.992188 286.769531 103.277344 307.285156 99.839844 L 331.613281 95.765625 C 331.742188 86.304688 329.53125 81.84375 314.304688 81.84375 C 303.9375 81.84375 296.527344 84.351563 292.542969 89.390625 L 284.027344 72.882813 C 291.398438 64.191406 302.015625 59.847656 315.871094 59.847656 C 326.234375 59.847656 340.203125 62.574219 346.484375 67.964844 C 348.53125 69.726563 350.441406 72.03125 352.109375 74.914063 C 353.78125 77.796875 354.84375 80.6875 355.28125 83.570313 C 355.726563 86.488281 355.957031 91.9375 355.957031 100.023438 Z M 122.582031 158.878906 L 88.828125 158.878906 L 79.214844 124.414063 L 44.5625 124.414063 L 30.457031 158.878906 L 0.03125 158.878906 L 42.039063 42.289063 L 27.558594 42.289063 L 27.140625 31.46875 L 86.675781 31.898438 Z M 74.191406 106.746094 L 62.550781 60.394531 L 47.253906 106.746094 Z M 551.863281 157.792969 L 478.421875 157.792969 L 478.421875 132.09375 L 514.054688 81.871094 L 491.855469 81.871094 L 491.855469 90.371094 L 478.914063 90.371094 L 478.914063 60.398438 L 552.484375 60.398438 L 552.484375 84.386719 L 513.453125 135.707031 L 551.863281 135.621094 Z M 411.28125 158.359375 L 380.695313 158.359375 L 380.472656 74.824219 L 372.121094 74.824219 L 372.121094 61.347656 L 406.996094 61.347656 L 406.996094 73.664063 C 415.257813 64.246094 431.191406 59.535156 440.640625 59.535156 C 448.945313 59.535156 455.179688 62.984375 459.378906 69.84375 C 463.511719 76.703125 465.585938 87.734375 465.585938 102.957031 L 465.484375 158.359375 L 434.804688 158.359375 L 434.804688 115.246094 C 434.804688 108.96875 436.472656 84.3125 425.007813 84.441406 C 422.015625 84.476563 412.117188 84.511719 411.253906 97.324219 Z M 131.605469 159.46875 L 131.605469 42.890625 L 121.25 42.890625 L 121.25 28.613281 L 161.441406 28.613281 L 161.441406 159.46875 Z M 182.152344 159.46875 L 182.152344 42.890625 L 171.792969 42.890625 L 171.792969 28.613281 L 211.984375 28.613281 L 211.984375 159.46875 Z M 234.257813 158.945313 L 234.257813 72.953125 L 223.898438 72.953125 L 223.898438 61.429688 L 264.09375 61.429688 L 264.09375 158.945313 Z M 247.15625 25.953125 C 255.117188 25.953125 261.578125 32.414063 261.578125 40.378906 C 261.578125 48.339844 255.117188 54.800781 247.15625 54.800781 C 239.195313 54.800781 232.738281 48.339844 232.738281 40.378906 C 232.738281 32.414063 239.195313 25.953125 247.15625 25.953125 Z M 331.613281 131.644531 L 331.613281 110.246094 C 320.261719 110.828125 305.976563 113.007813 306.160156 129.074219 C 306.292969 140.242188 322.085938 140.710938 331.613281 131.644531 Z M 331.613281 131.644531 "/>
<path style=" stroke:none;fill-rule:evenodd;fill:rgb(0%,28.24707%,55.664063%);fill-opacity:1;" d="M 682.746094 153.609375 L 682.746094 46.601563 L 673.238281 46.601563 L 673.238281 33.492188 L 710.132813 33.492188 L 710.132813 153.609375 Z M 682.746094 153.609375 "/>
<path style=" stroke:none;fill-rule:evenodd;fill:rgb(0%,28.24707%,55.664063%);fill-opacity:1;" d="M 641.066406 154.1875 L 668.679688 154.1875 L 668.679688 58.835938 L 641.066406 58.835938 Z M 641.066406 154.1875 "/>
<path style=" stroke:none;fill-rule:evenodd;fill:rgb(0%,28.24707%,55.664063%);fill-opacity:1;" d="M 720.789063 154.1875 L 748.40625 154.1875 L 748.40625 58.835938 L 720.789063 58.835938 Z M 720.789063 154.1875 "/>
<g clip-path="url(#clip1)" clip-rule="nonzero">
<path style=" stroke:none;fill-rule:evenodd;fill:rgb(0%,28.24707%,55.664063%);fill-opacity:1;" d="M 694.476563 -0.046875 C 749.574219 -0.046875 794.257813 44.640625 794.257813 99.742188 C 794.257813 154.839844 749.574219 199.523438 694.476563 199.523438 C 639.375 199.523438 594.691406 154.839844 594.691406 99.742188 C 594.691406 44.640625 639.375 -0.046875 694.476563 -0.046875 Z M 694.476563 18.191406 C 739.503906 18.191406 776.019531 54.710938 776.019531 99.742188 C 776.019531 144.769531 739.503906 181.285156 694.476563 181.285156 C 649.445313 181.285156 612.925781 144.769531 612.925781 99.742188 C 612.925781 54.710938 649.445313 18.191406 694.476563 18.191406 Z M 694.476563 18.191406 "/>
</g>
</g>
</svg>
