<?xml version="1.0" encoding="UTF-8"?>
<svg xmlns="http://www.w3.org/2000/svg" xmlns:xlink="http://www.w3.org/1999/xlink" width="186.63pt" height="46.7pt" viewBox="0 0 186.63 46.7" version="1.1">
<defs>
<clipPath id="clip1">
  <path d="M 52 27 L 64 27 L 64 46.699219 L 52 46.699219 Z M 52 27 "/>
</clipPath>
<clipPath id="clip2">
  <path d="M 175 27 L 186.628906 27 L 186.628906 46 L 175 46 Z M 175 27 "/>
</clipPath>
<clipPath id="clip3">
  <path d="M 0 0 L 54 0 L 54 46.699219 L 0 46.699219 Z M 0 0 "/>
</clipPath>
<clipPath id="clip4">
  <path d="M 0 26 L 18 26 L 18 46.699219 L 0 46.699219 Z M 0 26 "/>
</clipPath>
<clipPath id="clip5">
  <path d="M 7 26 L 29 26 L 29 46.699219 L 7 46.699219 Z M 7 26 "/>
</clipPath>
<clipPath id="clip6">
  <path d="M 17 24 L 36 24 L 36 46.699219 L 17 46.699219 Z M 17 24 "/>
</clipPath>
<clipPath id="clip7">
  <path d="M 32 24 L 50 24 L 50 46.699219 L 32 46.699219 Z M 32 24 "/>
</clipPath>
<clipPath id="clip8">
  <path d="M 23 32 L 38 32 L 38 46.699219 L 23 46.699219 Z M 23 32 "/>
</clipPath>
<clipPath id="clip9">
  <path d="M 26 26 L 41 26 L 41 46.699219 L 26 46.699219 Z M 26 26 "/>
</clipPath>
<clipPath id="clip10">
  <path d="M 30 32 L 45 32 L 45 46.699219 L 30 46.699219 Z M 30 32 "/>
</clipPath>
</defs>
<g id="surface1">
<g clip-path="url(#clip1)" clip-rule="nonzero">
<path style=" stroke:none;fill-rule:nonzero;fill:rgb(13.699341%,12.199402%,12.5%);fill-opacity:1;" d="M 61.4375 40.832031 C 60.976563 43.617188 57.726563 45.011719 55.871094 43.15625 C 55.40625 42.691406 54.941406 41.300781 54.941406 41.300781 C 54.476563 40.371094 54.476563 35.265625 54.476563 33.40625 C 54.476563 32.945313 54.941406 32.015625 55.40625 32.015625 C 56.796875 28.765625 60.511719 30.160156 61.4375 32.945313 C 61.4375 33.40625 61.4375 33.40625 61.4375 33.871094 C 63.296875 33.871094 63.296875 33.871094 63.296875 33.871094 C 63.296875 32.480469 62.832031 32.015625 62.832031 31.089844 L 62.367188 30.621094 C 61.4375 29.230469 60.976563 28.300781 58.191406 27.839844 L 57.261719 28.300781 C 55.40625 28.300781 54.011719 29.695313 53.085938 31.550781 C 52.15625 33.40625 52.621094 41.761719 53.085938 43.15625 C 54.476563 45.476563 57.261719 46.867188 60.511719 45.9375 C 62.367188 45.011719 63.296875 43.15625 63.296875 40.371094 C 62.832031 40.371094 61.902344 40.371094 61.4375 40.371094 L 61.4375 40.832031 "/>
</g>
<path style=" stroke:none;fill-rule:nonzero;fill:rgb(13.699341%,12.199402%,12.5%);fill-opacity:1;" d="M 71.257813 27.839844 C 68.007813 27.839844 65.6875 30.621094 65.6875 34.800781 C 65.6875 35.730469 65.6875 35.730469 65.6875 35.730469 C 64.757813 35.730469 64.757813 35.730469 64.757813 35.730469 C 64.757813 38.050781 64.757813 38.050781 64.757813 38.050781 C 65.6875 38.050781 65.6875 38.050781 65.6875 38.050781 C 65.6875 45.9375 65.6875 45.9375 65.6875 45.9375 C 68.007813 45.9375 68.007813 45.9375 68.007813 45.9375 C 68.007813 38.050781 68.007813 38.050781 68.007813 38.050781 C 74.042969 38.050781 74.042969 38.050781 74.042969 38.050781 C 74.042969 45.9375 74.042969 45.9375 74.042969 45.9375 C 76.363281 45.9375 76.363281 45.9375 76.363281 45.9375 C 76.363281 34.800781 76.363281 34.800781 76.363281 34.800781 C 76.363281 30.621094 74.042969 27.839844 71.257813 27.839844 M 74.042969 35.730469 C 68.007813 35.730469 68.007813 35.730469 68.007813 35.730469 C 68.007813 34.335938 68.007813 34.335938 68.007813 34.335938 C 68.007813 32.015625 68.9375 30.160156 71.257813 30.160156 C 73.113281 30.160156 74.042969 32.015625 74.042969 34.335938 C 74.042969 35.730469 74.042969 35.730469 74.042969 35.730469 "/>
<path style=" stroke:none;fill-rule:nonzero;fill:rgb(13.699341%,12.199402%,12.5%);fill-opacity:1;" d="M 108.066406 27.839844 C 104.820313 27.839844 102.5 30.621094 102.5 34.800781 C 102.5 35.730469 102.5 35.730469 102.5 35.730469 C 101.570313 35.730469 101.570313 35.730469 101.570313 35.730469 C 101.570313 38.050781 101.570313 38.050781 101.570313 38.050781 C 102.5 38.050781 102.5 38.050781 102.5 38.050781 C 102.5 45.9375 102.5 45.9375 102.5 45.9375 C 104.820313 45.9375 104.820313 45.9375 104.820313 45.9375 C 104.820313 38.050781 104.820313 38.050781 104.820313 38.050781 C 110.855469 38.050781 110.855469 38.050781 110.855469 38.050781 C 110.855469 45.9375 110.855469 45.9375 110.855469 45.9375 C 113.171875 45.9375 113.171875 45.9375 113.171875 45.9375 C 113.171875 34.800781 113.171875 34.800781 113.171875 34.800781 C 113.171875 30.621094 110.855469 27.839844 108.066406 27.839844 M 110.855469 35.730469 C 104.820313 35.730469 104.820313 35.730469 104.820313 35.730469 C 104.820313 34.335938 104.820313 34.335938 104.820313 34.335938 C 104.820313 32.015625 105.75 30.160156 108.066406 30.160156 C 109.925781 30.160156 110.855469 32.015625 110.855469 34.335938 C 110.855469 35.730469 110.855469 35.730469 110.855469 35.730469 "/>
<path style=" stroke:none;fill-rule:nonzero;fill:rgb(13.699341%,12.199402%,12.5%);fill-opacity:1;" d="M 76.363281 28.765625 L 86.574219 28.765625 L 86.574219 30.621094 L 82.398438 30.621094 L 82.398438 45.476563 L 80.539063 45.476563 L 80.539063 30.621094 L 76.363281 30.621094 L 76.363281 28.765625 "/>
<path style=" stroke:none;fill-rule:nonzero;fill:rgb(13.699341%,12.199402%,12.5%);fill-opacity:1;" d="M 88.039063 45.476563 L 88.039063 28.765625 L 90.359375 28.765625 L 90.359375 35.730469 L 97.324219 35.730469 L 97.324219 28.765625 L 99.640625 28.765625 L 99.640625 45.476563 L 97.324219 45.476563 L 97.324219 38.050781 L 90.359375 38.050781 L 90.359375 45.476563 L 88.039063 45.476563 "/>
<path style=" stroke:none;fill-rule:nonzero;fill:rgb(13.699341%,12.199402%,12.5%);fill-opacity:1;" d="M 118.378906 35.730469 C 119.867188 37.585938 123.835938 37.121094 124.332031 34.800781 C 124.332031 28.300781 124.332031 28.300781 124.332031 28.300781 C 126.3125 28.765625 126.3125 28.765625 126.3125 28.765625 C 126.3125 36.191406 126.3125 39.441406 126.3125 41.761719 C 125.816406 43.617188 125.320313 44.082031 124.828125 45.011719 C 122.84375 45.9375 116.398438 45.476563 115.902344 45.476563 C 115.902344 43.617188 115.902344 43.617188 115.902344 43.617188 C 115.902344 43.617188 121.851563 43.617188 123.339844 43.15625 C 124.332031 42.691406 124.332031 39.90625 124.332031 38.050781 C 123.835938 38.511719 123.339844 38.511719 122.84375 38.976563 C 119.867188 39.441406 116.894531 38.050781 115.902344 35.730469 C 115.902344 34.800781 115.902344 28.765625 115.902344 28.765625 C 117.886719 28.765625 117.886719 28.765625 117.886719 28.765625 C 117.886719 32.480469 117.886719 35.265625 118.378906 35.730469 "/>
<path style=" stroke:none;fill-rule:nonzero;fill:rgb(13.699341%,12.199402%,12.5%);fill-opacity:1;" d="M 155.785156 28.03125 C 152.59375 28.03125 150.320313 30.304688 150.320313 34.402344 C 150.320313 35.316406 150.320313 35.316406 150.320313 35.316406 C 148.953125 35.316406 148.953125 35.316406 148.953125 35.316406 C 148.953125 37.589844 148.953125 37.589844 148.953125 37.589844 C 150.320313 37.589844 150.320313 37.589844 150.320313 37.589844 C 150.320313 45.328125 150.320313 45.328125 150.320313 45.328125 C 152.59375 45.328125 152.59375 45.328125 152.59375 45.328125 C 152.59375 37.589844 152.59375 37.589844 152.59375 37.589844 C 158.96875 37.589844 158.96875 37.589844 158.96875 37.589844 C 158.96875 45.328125 158.96875 45.328125 158.96875 45.328125 C 161.246094 45.328125 161.246094 45.328125 161.246094 45.328125 C 161.246094 34.402344 161.246094 34.402344 161.246094 34.402344 C 161.246094 30.304688 158.96875 28.03125 155.785156 28.03125 M 158.96875 35.316406 C 152.59375 35.316406 152.59375 35.316406 152.59375 35.316406 C 152.59375 34.402344 152.59375 34.402344 152.59375 34.402344 C 152.59375 31.671875 153.507813 29.851563 155.785156 29.851563 C 157.601563 29.851563 158.96875 31.671875 158.96875 34.402344 C 158.96875 35.316406 158.96875 35.316406 158.96875 35.316406 "/>
<path style=" stroke:none;fill-rule:nonzero;fill:rgb(13.699341%,12.199402%,12.5%);fill-opacity:1;" d="M 169.164063 28.484375 C 167.34375 28.484375 166.433594 28.941406 165.523438 29.398438 C 165.523438 28.484375 165.523438 28.484375 165.523438 28.484375 C 163.246094 28.484375 163.246094 28.484375 163.246094 28.484375 C 163.246094 34.402344 163.246094 34.402344 163.246094 34.402344 C 163.246094 45.328125 163.246094 45.328125 163.246094 45.328125 C 165.523438 45.328125 165.523438 45.328125 165.523438 45.328125 C 165.523438 33.949219 165.523438 33.949219 165.523438 33.949219 C 165.523438 31.214844 167.34375 30.304688 168.707031 30.304688 C 170.527344 30.304688 171.894531 31.214844 171.894531 33.949219 C 171.894531 45.328125 171.894531 45.328125 171.894531 45.328125 C 174.171875 45.328125 174.171875 45.328125 174.171875 45.328125 C 174.171875 35.316406 174.171875 35.316406 174.171875 35.316406 C 174.171875 29.851563 171.894531 28.484375 169.164063 28.484375 "/>
<path style=" stroke:none;fill-rule:nonzero;fill:rgb(13.699341%,12.199402%,12.5%);fill-opacity:1;" d="M 146.402344 36.222656 C 148.679688 34.402344 148.679688 29.851563 145.492188 28.484375 C 144.582031 28.484375 142.304688 28.484375 142.304688 28.484375 L 137.296875 28.484375 C 137.296875 45.328125 137.296875 45.328125 137.296875 45.328125 C 137.296875 45.328125 144.582031 45.328125 145.492188 45.328125 C 149.132813 43.964844 149.589844 38.046875 146.402344 36.222656 M 139.574219 30.304688 C 140.484375 30.304688 144.582031 29.851563 145.039063 30.761719 C 145.492188 31.214844 145.492188 31.671875 145.949219 32.582031 C 145.492188 35.769531 142.761719 35.316406 139.574219 35.316406 Z M 145.039063 43.054688 C 144.128906 43.507813 141.394531 43.054688 139.574219 43.054688 C 139.574219 42.597656 139.121094 37.589844 139.121094 37.136719 C 139.574219 37.136719 144.128906 37.136719 145.039063 37.589844 C 146.859375 38.046875 146.859375 42.144531 145.039063 43.054688 "/>
<g clip-path="url(#clip2)" clip-rule="nonzero">
<path style=" stroke:none;fill-rule:nonzero;fill:rgb(13.699341%,12.199402%,12.5%);fill-opacity:1;" d="M 175.601563 27.851563 L 175.625 45.320313 L 177.476563 45.320313 L 177.476563 37.601563 C 177.476563 37.601563 181.226563 37.601563 181.976563 37.601563 C 183.476563 37.601563 184.449219 38.601563 184.574219 40.226563 C 184.671875 41.496094 184.550781 45.320313 184.550781 45.320313 L 186.449219 45.320313 C 186.449219 45.320313 186.351563 41.226563 186.351563 39.226563 C 186.351563 37.476563 184.226563 35.976563 182.601563 35.976563 C 181.570313 35.976563 179.75 35.976563 179.75 35.976563 L 186.625 28 L 183.949219 27.976563 L 177.601563 35.574219 L 177.601563 27.851563 L 175.601563 27.851563 "/>
</g>
<g clip-path="url(#clip3)" clip-rule="nonzero">
<path style="fill:none;stroke-width:12;stroke-linecap:butt;stroke-linejoin:miter;stroke:rgb(76.899719%,25.898743%,18.399048%);stroke-opacity:1;stroke-miterlimit:4;" d="M 466.015625 53.484375 C 463.515625 10.984375 466.015625 8.484375 428.515625 5.984375 L 42.65625 6.84375 C 15.15625 5.164063 9.335938 13.484375 6.015625 53.484375 L 8.515625 393.484375 C 8.515625 458.367188 14.296875 460.984375 78.515625 460.984375 L 416.015625 458.484375 C 451.015625 455.984375 461.015625 450.984375 463.515625 418.484375 Z M 466.015625 53.484375 " transform="matrix(0.1,0,0,-0.1,0,46.7)"/>
</g>
<path style="fill:none;stroke-width:12;stroke-linecap:butt;stroke-linejoin:miter;stroke:rgb(76.899719%,25.898743%,18.399048%);stroke-opacity:1;stroke-miterlimit:4;" d="M 428.515625 257.664063 C 426.835938 245.984375 428.90625 243.71875 413.515625 242.664063 L 254.179688 242.78125 C 245.15625 242.664063 240.703125 245.828125 240.15625 260.164063 L 240.15625 415.984375 C 240.15625 430.984375 246.835938 435.984375 260.15625 436.804688 L 406.835938 435.984375 C 421.210938 434.929688 429.335938 434.304688 429.140625 424.617188 Z M 428.515625 257.664063 " transform="matrix(0.1,0,0,-0.1,0,46.7)"/>
<path style="fill:none;stroke-width:12;stroke-linecap:butt;stroke-linejoin:miter;stroke:rgb(76.899719%,25.898743%,18.399048%);stroke-opacity:1;stroke-miterlimit:4;" d="M 216.015625 209.304688 C 216.015625 209.304688 148.007813 211.6875 147.304688 207.546875 C 142.226563 179.460938 145.742188 178.289063 148.007813 167.15625 C 148.75 164.8125 210.585938 166.023438 213.828125 166.023438 " transform="matrix(0.1,0,0,-0.1,0,46.7)"/>
<path style="fill:none;stroke-width:12;stroke-linecap:butt;stroke-linejoin:miter;stroke:rgb(76.899719%,25.898743%,18.399048%);stroke-opacity:1;stroke-miterlimit:4;" d="M 31.5625 206.804688 C 31.5625 206.804688 101.953125 209.1875 102.695313 205.046875 C 107.929688 176.960938 104.335938 175.789063 101.953125 164.65625 C 101.210938 162.3125 37.1875 163.523438 33.828125 163.523438 " transform="matrix(0.1,0,0,-0.1,0,46.7)"/>
<path style="fill:none;stroke-width:12;stroke-linecap:butt;stroke-linejoin:miter;stroke:rgb(76.899719%,25.898743%,18.399048%);stroke-opacity:1;stroke-miterlimit:4;" d="M 76.679688 430.984375 C 83.046875 427.976563 95.078125 429.070313 104.726563 420.164063 C 109.023438 416.21875 110.15625 409.304688 110.15625 409.304688 M 36.015625 409.304688 C 36.015625 409.304688 39.375 420.125 43.242188 421.804688 C 56.25 427.546875 65.15625 427.46875 71.289063 430.984375 C 74.921875 433.09375 73.828125 436.023438 73.515625 448.796875 " transform="matrix(0.1,0,0,-0.1,0,46.7)"/>
<path style="fill:none;stroke-width:12;stroke-linecap:butt;stroke-linejoin:miter;stroke:rgb(76.899719%,25.898743%,18.399048%);stroke-opacity:1;stroke-miterlimit:4;" d="M 111.015625 316.804688 L 111.015625 258.484375 " transform="matrix(0.1,0,0,-0.1,0,46.7)"/>
<path style="fill:none;stroke-width:12;stroke-linecap:butt;stroke-linejoin:miter;stroke:rgb(76.899719%,25.898743%,18.399048%);stroke-opacity:1;stroke-miterlimit:4;" d="M 39.335938 315.984375 L 39.335938 259.304688 " transform="matrix(0.1,0,0,-0.1,0,46.7)"/>
<path style="fill:none;stroke-width:12;stroke-linecap:butt;stroke-linejoin:miter;stroke:rgb(76.899719%,25.898743%,18.399048%);stroke-opacity:1;stroke-miterlimit:4;" d="M 111.015625 332.664063 C 107.265625 332.664063 36.015625 330.984375 35.15625 334.304688 C 32.539063 350.125 28.515625 351.804688 34.335938 391.804688 C 35.15625 397.664063 113.515625 394.304688 113.515625 394.304688 M 31.015625 364.304688 L 107.65625 364.304688 M 71.835938 332.664063 L 71.835938 233.484375 M 27.65625 235.984375 L 113.515625 235.984375 " transform="matrix(0.1,0,0,-0.1,0,46.7)"/>
<path style="fill:none;stroke-width:12;stroke-linecap:butt;stroke-linejoin:miter;stroke:rgb(76.899719%,25.898743%,18.399048%);stroke-opacity:1;stroke-miterlimit:4;" d="M 136.015625 296.804688 C 136.015625 302.390625 132.65625 428.484375 136.015625 432.664063 C 138.59375 435.90625 201.015625 433.484375 206.015625 434.304688 C 211.015625 435.164063 213.515625 426.84375 212.65625 420.984375 C 212.304688 418.523438 213.515625 408.484375 211.015625 396.804688 C 210.234375 393.171875 136.835938 395.164063 136.835938 395.164063 M 217.65625 245.164063 C 217.65625 245.164063 218.515625 272.664063 217.65625 285.164063 C 217.109375 293.484375 210.15625 295.164063 204.335938 294.304688 C 198.515625 293.484375 135.15625 293.484375 135.15625 293.484375 C 135.15625 293.484375 132.65625 255.164063 137.65625 247.664063 C 140.351563 243.601563 142.5 231.921875 149.335938 232.664063 C 156.835938 233.484375 186.015625 232.664063 186.015625 232.664063 M 133.515625 345.984375 C 133.515625 345.984375 207.65625 344.304688 211.015625 346.804688 C 214.335938 349.304688 212.65625 382.664063 211.015625 387.664063 C 209.335938 392.664063 205.15625 395.164063 205.15625 395.164063 " transform="matrix(0.1,0,0,-0.1,0,46.7)"/>
<path style="fill:none;stroke-width:12;stroke-linecap:butt;stroke-linejoin:miter;stroke:rgb(76.899719%,25.898743%,18.399048%);stroke-opacity:1;stroke-miterlimit:4;" d="M 276.835938 435.984375 C 276.835938 435.984375 276.835938 389.34375 276.835938 385.164063 C 276.835938 380.984375 275.15625 375.984375 279.335938 375.984375 C 283.515625 375.984375 386.015625 375.984375 388.515625 374.304688 " transform="matrix(0.1,0,0,-0.1,0,46.7)"/>
<path style="fill:none;stroke-width:12;stroke-linecap:butt;stroke-linejoin:miter;stroke:rgb(76.899719%,25.898743%,18.399048%);stroke-opacity:1;stroke-miterlimit:4;" d="M 405.15625 404.304688 L 361.835938 405.164063 L 360.15625 424.304688 C 360.15625 424.304688 357.65625 325.164063 362.65625 323.484375 C 373.867188 319.773438 391.835938 307.664063 400.15625 303.484375 C 402.539063 302.3125 402.65625 258.484375 402.65625 258.484375 " transform="matrix(0.1,0,0,-0.1,0,46.7)"/>
<path style="fill:none;stroke-width:12;stroke-linecap:butt;stroke-linejoin:miter;stroke:rgb(76.899719%,25.898743%,18.399048%);stroke-opacity:1;stroke-miterlimit:4;" d="M 370.15625 259.304688 C 370.15625 261.804688 371.835938 314.34375 373.515625 318.484375 C 375.15625 322.664063 401.015625 345.984375 405.15625 347.664063 " transform="matrix(0.1,0,0,-0.1,0,46.7)"/>
<path style="fill:none;stroke-width:12;stroke-linecap:butt;stroke-linejoin:miter;stroke:rgb(76.899719%,25.898743%,18.399048%);stroke-opacity:1;stroke-miterlimit:4;" d="M 268.515625 273.484375 L 336.835938 273.484375 " transform="matrix(0.1,0,0,-0.1,0,46.7)"/>
<path style="fill:none;stroke-width:12;stroke-linecap:butt;stroke-linejoin:miter;stroke:rgb(76.899719%,25.898743%,18.399048%);stroke-opacity:1;stroke-miterlimit:4;" d="M 278.085938 345.164063 C 271.40625 341.335938 273.085938 317.273438 278.085938 313.914063 C 283.085938 310.554688 329.335938 308.484375 333.085938 313.914063 C 337.109375 319.734375 337.226563 341.023438 333.085938 345.164063 C 328.90625 349.304688 286.835938 350.164063 278.085938 345.164063 Z M 278.085938 345.164063 " transform="matrix(0.1,0,0,-0.1,0,46.7)"/>
<path style="fill:none;stroke-width:12;stroke-linecap:butt;stroke-linejoin:miter;stroke:rgb(76.899719%,25.898743%,18.399048%);stroke-opacity:1;stroke-miterlimit:4;" d="M 246.835938 205.164063 L 425.15625 204.304688 " transform="matrix(0.1,0,0,-0.1,0,46.7)"/>
<g clip-path="url(#clip4)" clip-rule="nonzero">
<path style="fill:none;stroke-width:12;stroke-linecap:butt;stroke-linejoin:miter;stroke:rgb(76.899719%,25.898743%,18.399048%);stroke-opacity:1;stroke-miterlimit:4;" d="M 31.015625 57.3125 C 31.015625 57.3125 31.835938 118.132813 32.65625 123.132813 C 33.515625 128.132813 35.15625 130.671875 42.65625 131.492188 C 50.15625 132.3125 96.015625 131.492188 96.015625 131.492188 C 96.015625 131.492188 101.992188 130.945313 102.65625 126.492188 C 107.65625 93.132813 104.335938 53.992188 98.515625 49.8125 C 77.1875 34.617188 57.65625 25.632813 51.015625 21.492188 " transform="matrix(0.1,0,0,-0.1,0,46.7)"/>
</g>
<g clip-path="url(#clip5)" clip-rule="nonzero">
<path style="fill:none;stroke-width:12;stroke-linecap:butt;stroke-linejoin:miter;stroke:rgb(76.899719%,25.898743%,18.399048%);stroke-opacity:1;stroke-miterlimit:4;" d="M 215.46875 57.664063 C 215.46875 57.664063 214.648438 118.484375 213.828125 123.484375 C 212.96875 128.484375 211.328125 130.984375 203.828125 131.804688 C 196.328125 132.664063 150.46875 131.804688 150.46875 131.804688 C 150.46875 131.804688 144.492188 131.257813 143.828125 126.804688 C 138.828125 93.484375 142.148438 54.304688 147.96875 50.164063 C 169.296875 34.96875 188.828125 25.984375 195.46875 21.804688 " transform="matrix(0.1,0,0,-0.1,0,46.7)"/>
</g>
<path style="fill:none;stroke-width:12;stroke-linecap:butt;stroke-linejoin:miter;stroke:rgb(76.899719%,25.898743%,18.399048%);stroke-opacity:1;stroke-miterlimit:4;" d="M 247.65625 182.664063 L 424.335938 183.484375 " transform="matrix(0.1,0,0,-0.1,0,46.7)"/>
<path style="fill:none;stroke-width:12;stroke-linecap:butt;stroke-linejoin:miter;stroke:rgb(76.899719%,25.898743%,18.399048%);stroke-opacity:1;stroke-miterlimit:4;" d="M 246.835938 153.484375 L 426.835938 154.304688 " transform="matrix(0.1,0,0,-0.1,0,46.7)"/>
<path style="fill:none;stroke-width:12;stroke-linecap:butt;stroke-linejoin:miter;stroke:rgb(76.899719%,25.898743%,18.399048%);stroke-opacity:1;stroke-miterlimit:4;" d="M 338.515625 219.304688 L 337.65625 151.804688 " transform="matrix(0.1,0,0,-0.1,0,46.7)"/>
<g clip-path="url(#clip6)" clip-rule="nonzero">
<path style="fill:none;stroke-width:12;stroke-linecap:butt;stroke-linejoin:miter;stroke:rgb(76.899719%,25.898743%,18.399048%);stroke-opacity:1;stroke-miterlimit:4;" d="M 286.835938 153.484375 C 286.835938 153.484375 255.15625 34.34375 252.65625 33.484375 C 250.15625 32.664063 246.015625 32.664063 246.015625 32.664063 " transform="matrix(0.1,0,0,-0.1,0,46.7)"/>
</g>
<g clip-path="url(#clip7)" clip-rule="nonzero">
<path style="fill:none;stroke-width:12;stroke-linecap:butt;stroke-linejoin:miter;stroke:rgb(76.899719%,25.898743%,18.399048%);stroke-opacity:1;stroke-miterlimit:4;" d="M 389.335938 154.304688 C 389.335938 154.304688 418.476563 32.664063 421.835938 32.664063 C 425.15625 32.664063 430.15625 32.664063 430.15625 32.664063 " transform="matrix(0.1,0,0,-0.1,0,46.7)"/>
</g>
<path style="fill:none;stroke-width:12;stroke-linecap:butt;stroke-linejoin:miter;stroke:rgb(76.899719%,25.898743%,18.399048%);stroke-opacity:1;stroke-miterlimit:4;" d="M 310.15625 138.484375 C 310.15625 138.484375 311.835938 103.484375 309.335938 97.664063 C 306.835938 91.804688 300.15625 91.804688 300.15625 91.804688 " transform="matrix(0.1,0,0,-0.1,0,46.7)"/>
<g clip-path="url(#clip8)" clip-rule="nonzero">
<path style="fill:none;stroke-width:12;stroke-linecap:butt;stroke-linejoin:miter;stroke:rgb(76.899719%,25.898743%,18.399048%);stroke-opacity:1;stroke-miterlimit:4;" d="M 309.570313 79.109375 C 309.570313 79.109375 309.453125 44.070313 306.914063 38.328125 C 304.335938 32.625 298.242188 32.898438 298.242188 32.898438 " transform="matrix(0.1,0,0,-0.1,0,46.7)"/>
</g>
<path style="fill:none;stroke-width:12;stroke-linecap:butt;stroke-linejoin:miter;stroke:rgb(76.899719%,25.898743%,18.399048%);stroke-opacity:1;stroke-miterlimit:4;" d="M 372.65625 128.484375 C 372.65625 128.484375 373.515625 103.484375 372.65625 99.304688 C 371.835938 95.164063 371.835938 91.804688 367.65625 91.804688 C 363.515625 91.804688 342.65625 93.484375 340.15625 92.664063 " transform="matrix(0.1,0,0,-0.1,0,46.7)"/>
<g clip-path="url(#clip9)" clip-rule="nonzero">
<path style="fill:none;stroke-width:12;stroke-linecap:butt;stroke-linejoin:miter;stroke:rgb(76.899719%,25.898743%,18.399048%);stroke-opacity:1;stroke-miterlimit:4;" d="M 338.515625 136.804688 L 337.65625 29.304688 " transform="matrix(0.1,0,0,-0.1,0,46.7)"/>
</g>
<g clip-path="url(#clip10)" clip-rule="nonzero">
<path style="fill:none;stroke-width:12;stroke-linecap:butt;stroke-linejoin:miter;stroke:rgb(76.899719%,25.898743%,18.399048%);stroke-opacity:1;stroke-miterlimit:4;" d="M 372.65625 75.984375 C 372.65625 75.984375 375.15625 35.164063 373.515625 31.804688 " transform="matrix(0.1,0,0,-0.1,0,46.7)"/>
</g>
</g>
</svg>
