<?xml version="1.0" encoding="UTF-8"?>
<svg xmlns="http://www.w3.org/2000/svg" xmlns:xlink="http://www.w3.org/1999/xlink" width="194pt" height="194pt" viewBox="0 0 194 194" version="1.1">
<g id="surface1">
<path style=" stroke:none;fill-rule:evenodd;fill:rgb(100%,100%,100%);fill-opacity:1;" d="M 0.257813 0.675781 L 193.015625 0.675781 L 193.015625 193.433594 L 0.257813 193.433594 L 0.257813 0.675781 "/>
<path style=" stroke:none;fill-rule:evenodd;fill:rgb(13.699341%,12.199402%,12.5%);fill-opacity:1;" d="M 100.796875 10.882813 L 97.65625 10.882813 L 97.65625 19.515625 L 96.089844 19.515625 L 96.089844 11.039063 L 93.105469 11.039063 L 93.105469 9.941406 L 100.796875 9.941406 L 100.796875 10.882813 "/>
<path style=" stroke:none;fill-rule:evenodd;fill:rgb(13.699341%,12.199402%,12.5%);fill-opacity:1;" d="M 91.066406 19.671875 L 85.730469 12.296875 L 86.515625 20.144531 L 85.257813 20.300781 L 84.160156 10.726563 L 86.042969 10.570313 L 91.222656 17.789063 L 90.59375 10.097656 L 91.851563 9.941406 L 92.636719 19.515625 L 91.066406 19.671875 "/>
<path style=" stroke:none;fill-rule:evenodd;fill:rgb(13.699341%,12.199402%,12.5%);fill-opacity:1;" d="M 120.261719 18.730469 L 118.847656 22.8125 L 117.59375 22.339844 L 120.730469 13.078125 L 125.910156 14.964844 L 125.597656 16.0625 L 121.675781 14.808594 L 120.730469 17.476563 L 124.5 18.886719 L 124.027344 19.984375 L 120.261719 18.730469 "/>
<path style=" stroke:none;fill-rule:evenodd;fill:rgb(13.699341%,12.199402%,12.5%);fill-opacity:1;" d="M 156.992188 34.113281 L 158.714844 35.683594 L 151.808594 42.589844 L 150.867188 41.648438 L 156.675781 35.683594 L 148.828125 39.605469 L 147.730469 38.820313 L 151.023438 30.503906 L 145.375 36.78125 L 144.433594 35.996094 L 150.710938 28.621094 L 152.4375 30.03125 L 149.453125 37.878906 L 156.992188 34.113281 "/>
<path style=" stroke:none;fill-rule:evenodd;fill:rgb(13.699341%,12.199402%,12.5%);fill-opacity:1;" d="M 154.007813 44.945313 L 153.222656 43.84375 L 160.285156 37.410156 L 161.855469 39.292969 L 157.617188 46.199219 L 165.464844 43.53125 L 166.878906 45.414063 L 159.34375 51.378906 L 158.402344 50.28125 L 164.996094 45.101563 L 156.675781 47.925781 L 155.578125 46.671875 L 160.285156 39.292969 L 154.007813 44.945313 "/>
<path style=" stroke:none;fill-rule:evenodd;fill:rgb(13.699341%,12.199402%,12.5%);fill-opacity:1;" d="M 160.285156 52.632813 L 168.449219 47.769531 L 171.429688 52.792969 L 170.488281 53.261719 L 168.136719 49.496094 L 165.777344 50.90625 L 167.820313 54.519531 L 166.878906 55.144531 L 164.679688 51.535156 L 162.011719 52.949219 L 164.523438 57.1875 L 163.425781 57.65625 L 160.285156 52.632813 "/>
<path style=" stroke:none;fill-rule:evenodd;fill:rgb(13.699341%,12.199402%,12.5%);fill-opacity:1;" d="M 12.113281 75.550781 L 18.550781 77.277344 C 20.117188 77.433594 21.058594 76.023438 21.21875 75.078125 C 21.375 74.453125 21.375 73.039063 19.488281 72.410156 L 13.527344 70.6875 L 13.996094 69.273438 L 21.058594 71.3125 C 22.789063 72.570313 22.789063 74.140625 22.472656 75.550781 C 22.160156 77.121094 20.589844 78.691406 18.707031 78.691406 L 11.800781 76.964844 L 12.113281 75.550781 "/>
<path style=" stroke:none;fill-rule:evenodd;fill:rgb(13.699341%,12.199402%,12.5%);fill-opacity:1;" d="M 180.0625 76.648438 L 178.964844 72.253906 L 176.140625 72.882813 L 177.238281 77.121094 L 175.980469 77.433594 L 174.882813 73.195313 L 171.902344 73.980469 L 173 78.535156 L 171.902344 78.847656 C 171.273438 76.808594 170.800781 74.921875 170.332031 72.882813 L 179.90625 70.6875 L 181.160156 76.335938 L 180.0625 76.648438 "/>
<path style=" stroke:none;fill-rule:evenodd;fill:rgb(13.699341%,12.199402%,12.5%);fill-opacity:1;" d="M 28.28125 95.171875 L 66.578125 109.769531 C 66.421875 109.925781 66.265625 110.082031 66.265625 110.398438 L 28.125 97.683594 C 28.125 103.960938 30.164063 111.339844 31.578125 116.359375 L 65.792969 119.5 C 65.792969 119.972656 65.636719 119.972656 65.792969 120.441406 L 32.519531 118.714844 C 34.402344 124.367188 36.914063 129.703125 40.367188 134.726563 L 68.148438 129.859375 C 68.148438 130.171875 68.148438 130.488281 68.464844 130.800781 L 41.9375 136.921875 C 49 147.125 59.359375 155.132813 70.03125 159.996094 C 92.320313 170.515625 122.613281 165.804688 140.980469 149.636719 C 145.21875 145.714844 148.671875 142.574219 151.496094 137.867188 L 124.65625 131.585938 L 125.441406 130.644531 L 153.066406 135.667969 C 156.519531 130.960938 159.34375 124.996094 161.070313 119.34375 L 127.636719 121.226563 C 127.636719 121.070313 127.796875 120.597656 127.796875 120.285156 L 161.855469 116.832031 C 162.953125 113.222656 163.738281 109.457031 164.210938 105.53125 C 164.367188 103.332031 164.679688 100.664063 164.679688 98.46875 L 127.953125 111.183594 C 127.636719 110.867188 127.480469 110.554688 127.324219 110.238281 L 164.679688 96.269531 C 164.679688 90.777344 163.738281 85.125 162.640625 79.945313 L 125.441406 96.113281 C 121.515625 97.996094 116.964844 99.09375 115.710938 103.648438 C 113.667969 109.457031 119.945313 112.75 120.417969 118.089844 C 120.417969 119.65625 119.789063 121.070313 118.0625 121.542969 L 106.605469 121.542969 L 103.78125 104.117188 C 103.308594 101.605469 102.367188 97.839844 99.699219 97.683594 L 89.496094 97.683594 C 88.242188 97.839844 87.769531 99.410156 87.296875 100.351563 C 85.886719 100.507813 84.160156 100.195313 83.21875 101.449219 C 82.117188 103.804688 82.277344 107.570313 83.53125 109.769531 C 84.003906 109.140625 84.316406 108.355469 85.101563 108.199219 C 85.886719 108.199219 88.242188 108.042969 89.652344 108.355469 C 90.28125 108.671875 90.28125 109.925781 89.96875 110.710938 L 84.785156 121.542969 L 76.3125 121.542969 C 75.371094 121.542969 74.585938 120.914063 74.429688 120.441406 C 72.230469 116.675781 76.46875 111.96875 78.039063 108.355469 C 79.136719 104.433594 76.625 100.035156 73.800781 98.625 C 59.671875 92.1875 44.917969 85.753906 30.636719 79.320313 C 28.910156 85.441406 28.125 91.40625 28.28125 95.171875 "/>
<path style=" stroke:none;fill-rule:evenodd;fill:rgb(13.699341%,12.199402%,12.5%);fill-opacity:1;" d="M 174.097656 94.542969 L 183.671875 94.542969 L 183.671875 96.113281 L 175.824219 100.664063 L 183.515625 100.664063 L 183.671875 101.921875 L 173.941406 101.921875 L 173.941406 100.351563 L 181.632813 95.644531 L 174.097656 95.644531 L 174.097656 94.542969 "/>
<path style=" stroke:none;fill-rule:evenodd;fill:rgb(13.699341%,12.199402%,12.5%);fill-opacity:1;" d="M 181.945313 114.949219 L 172.371094 112.910156 L 172.6875 111.496094 L 182.105469 113.535156 L 181.945313 114.949219 "/>
<path style=" stroke:none;fill-rule:evenodd;fill:rgb(13.699341%,12.199402%,12.5%);fill-opacity:1;" d="M 180.535156 120.441406 L 172.214844 118.402344 L 171.273438 121.386719 L 170.175781 121.070313 L 172.214844 113.851563 L 173.3125 114.164063 L 172.53125 117.144531 L 180.847656 119.1875 L 180.535156 120.441406 "/>
<path style=" stroke:none;fill-rule:evenodd;fill:rgb(13.699341%,12.199402%,12.5%);fill-opacity:1;" d="M 34.875 145.398438 L 27.96875 150.578125 L 27.339844 149.636719 L 34.089844 144.300781 L 32.363281 142.101563 L 33.148438 141.476563 L 37.542969 147.125 L 36.757813 147.753906 L 34.875 145.398438 "/>
<path style=" stroke:none;fill-rule:evenodd;fill:rgb(13.699341%,12.199402%,12.5%);fill-opacity:1;" d="M 161.699219 150.578125 C 162.171875 151.050781 162.953125 151.050781 163.738281 150.734375 C 164.523438 150.265625 165.308594 149.480469 165.464844 148.539063 C 165.777344 147.597656 165.152344 146.96875 164.523438 146.65625 C 162.953125 146.339844 160.128906 151.207031 157.304688 148.695313 C 156.675781 147.910156 156.519531 146.8125 156.832031 145.871094 C 157.148438 144.613281 158.871094 142.574219 159.972656 142.574219 C 160.914063 142.417969 161.542969 142.730469 162.011719 143.203125 L 161.070313 144.300781 C 160.601563 143.828125 159.816406 143.828125 159.34375 144.144531 C 158.714844 144.613281 157.933594 145.554688 158.089844 146.496094 C 158.089844 147.28125 158.246094 147.753906 158.714844 147.753906 C 160.757813 148.222656 163.269531 143.203125 165.777344 145.714844 C 166.722656 146.496094 167.191406 147.441406 166.878906 148.539063 C 166.40625 149.953125 165.152344 151.519531 164.210938 151.992188 C 163.109375 152.304688 162.171875 152.621094 160.757813 151.675781 L 161.699219 150.578125 "/>
<path style=" stroke:none;fill-rule:evenodd;fill:rgb(13.699341%,12.199402%,12.5%);fill-opacity:1;" d="M 39.269531 149.011719 L 31.890625 155.132813 L 31.105469 154.1875 L 38.484375 148.066406 L 39.269531 149.011719 "/>
<path style=" stroke:none;fill-rule:evenodd;fill:rgb(13.699341%,12.199402%,12.5%);fill-opacity:1;" d="M 141.292969 171.769531 L 136.113281 163.605469 L 137.683594 162.507813 L 144.589844 167.375 L 142.707031 159.054688 L 144.433594 157.957031 L 150.085938 165.804688 L 148.984375 166.589844 L 144.277344 159.996094 L 146.160156 168.628906 L 145.21875 169.257813 L 137.996094 164.078125 L 142.394531 170.984375 L 141.292969 171.769531 "/>
<path style=" stroke:none;fill-rule:evenodd;fill:rgb(13.699341%,12.199402%,12.5%);fill-opacity:1;" d="M 56.378906 174.125 L 60.929688 165.648438 L 62.183594 166.433594 L 58.105469 173.808594 L 62.027344 175.695313 L 61.554688 176.792969 L 56.378906 174.125 "/>
<path style=" stroke:none;fill-rule:evenodd;fill:rgb(13.699341%,12.199402%,12.5%);fill-opacity:1;" d="M 113.199219 182.441406 L 107.234375 183.382813 L 105.976563 173.808594 L 111.472656 172.867188 L 111.785156 174.125 L 107.390625 174.75 L 107.859375 177.578125 L 111.941406 176.949219 L 112.097656 178.046875 L 108.019531 178.832031 L 108.332031 181.972656 L 113.039063 181.1875 L 113.199219 182.441406 "/>
<path style=" stroke:none;fill-rule:evenodd;fill:rgb(13.699341%,12.199402%,12.5%);fill-opacity:1;" d="M 15.253906 87.636719 C 16.195313 87.636719 16.824219 86.851563 16.824219 85.910156 C 16.824219 84.96875 16.195313 84.183594 15.09375 84.183594 C 14.15625 84.183594 13.527344 84.96875 13.527344 85.910156 C 13.527344 86.851563 14.15625 87.636719 15.253906 87.636719 "/>
<path style=" stroke:none;fill-rule:evenodd;fill:rgb(13.699341%,12.199402%,12.5%);fill-opacity:1;" d="M 178.492188 87.164063 C 179.4375 87.164063 180.21875 86.382813 180.21875 85.441406 C 180.21875 84.496094 179.4375 83.714844 178.492188 83.714844 C 177.550781 83.714844 176.765625 84.496094 176.765625 85.441406 C 176.765625 86.382813 177.550781 87.164063 178.492188 87.164063 "/>
<path style=" stroke:none;fill-rule:evenodd;fill:rgb(13.699341%,12.199402%,12.5%);fill-opacity:1;" d="M 23.886719 69.898438 L 23.570313 71.15625 L 22.160156 70.84375 L 22.628906 69.585938 L 23.886719 69.898438 "/>
<path style=" stroke:none;fill-rule:evenodd;fill:rgb(13.699341%,12.199402%,12.5%);fill-opacity:1;" d="M 29.066406 58.601563 L 28.4375 59.855469 L 27.183594 59.226563 L 27.808594 57.972656 L 29.066406 58.601563 "/>
<path style=" stroke:none;fill-rule:evenodd;fill:rgb(13.699341%,12.199402%,12.5%);fill-opacity:1;" d="M 170.332031 143.359375 L 162.953125 138.964844 L 161.226563 141.632813 L 160.285156 141.003906 L 164.210938 134.726563 L 165.152344 135.195313 L 163.582031 137.867188 L 170.960938 142.261719 L 170.332031 143.359375 "/>
<path style=" stroke:none;fill-rule:evenodd;fill:rgb(13.699341%,12.199402%,12.5%);fill-opacity:1;" d="M 154.007813 149.011719 L 154.949219 147.910156 L 162.011719 154.347656 L 161.226563 155.445313 L 154.007813 149.011719 "/>
<path style=" stroke:none;fill-rule:evenodd;fill:rgb(13.699341%,12.199402%,12.5%);fill-opacity:1;" d="M 153.222656 149.792969 L 159.816406 156.699219 L 158.714844 157.800781 L 150.085938 155.289063 L 155.421875 160.9375 L 154.480469 161.878906 L 147.886719 154.972656 L 148.984375 153.875 L 157.617188 156.230469 L 152.28125 150.734375 L 153.222656 149.792969 "/>
<path style=" stroke:none;fill-rule:evenodd;fill:rgb(13.699341%,12.199402%,12.5%);fill-opacity:1;" d="M 145.6875 156.859375 L 146.785156 155.914063 L 152.753906 163.449219 L 151.808594 164.390625 L 145.6875 156.859375 "/>
<path style=" stroke:none;fill-rule:evenodd;fill:rgb(13.699341%,12.199402%,12.5%);fill-opacity:1;" d="M 72.703125 180.714844 L 75.054688 172.398438 L 71.917969 171.457031 L 72.386719 170.355469 L 79.449219 172.554688 L 79.136719 173.496094 L 76.3125 172.710938 L 73.957031 181.03125 L 72.703125 180.714844 "/>
<path style=" stroke:none;fill-rule:evenodd;fill:rgb(13.699341%,12.199402%,12.5%);fill-opacity:1;" d="M 52.453125 160.78125 L 46.488281 168.316406 L 45.390625 167.375 L 46.644531 158.425781 L 41.78125 164.546875 L 40.839844 163.765625 L 46.644531 156.230469 L 47.902344 157.171875 L 46.800781 166.117188 L 51.511719 160.152344 L 52.453125 160.78125 "/>
<path style=" stroke:none;fill-rule:evenodd;fill:rgb(13.699341%,12.199402%,12.5%);fill-opacity:1;" d="M 29.066406 135.039063 L 20.433594 139.433594 L 19.804688 138.023438 L 24.671875 130.488281 L 17.765625 133.941406 L 17.136719 132.84375 L 25.769531 128.449219 L 26.398438 129.859375 L 21.6875 137.394531 L 28.4375 133.941406 L 29.066406 135.039063 "/>
<path style=" stroke:none;fill-rule:evenodd;fill:rgb(13.699341%,12.199402%,12.5%);fill-opacity:1;" d="M 13.371094 122.324219 L 11.800781 116.519531 L 21.21875 114.164063 L 22.628906 119.65625 L 21.53125 119.972656 L 20.433594 115.734375 L 17.765625 116.519531 L 18.707031 120.441406 L 17.605469 120.757813 L 16.507813 116.832031 L 13.371094 117.617188 L 14.625 122.011719 L 13.371094 122.324219 "/>
<path style=" stroke:none;fill-rule:evenodd;fill:rgb(13.699341%,12.199402%,12.5%);fill-opacity:1;" d="M 19.335938 110.398438 L 10.859375 111.96875 L 10.703125 110.867188 L 19.175781 109.140625 L 18.707031 106.316406 L 19.648438 106.160156 L 21.058594 113.222656 L 19.960938 113.378906 L 19.335938 110.398438 "/>
<path style=" stroke:none;fill-rule:evenodd;fill:rgb(13.699341%,12.199402%,12.5%);fill-opacity:1;" d="M 19.648438 104.746094 L 10.074219 105.375 L 9.917969 103.960938 L 17.449219 98.78125 L 9.757813 99.410156 L 9.601563 97.996094 L 19.175781 97.367188 L 19.335938 98.9375 L 11.957031 104.117188 L 19.488281 103.648438 L 19.648438 104.746094 "/>
<path style=" stroke:none;fill-rule:evenodd;fill:rgb(13.699341%,12.199402%,12.5%);fill-opacity:1;" d="M 19.175781 95.644531 L 9.601563 95.800781 L 9.601563 94.386719 L 19.175781 94.230469 L 19.175781 95.644531 "/>
<path style=" stroke:none;fill-rule:evenodd;fill:rgb(13.699341%,12.199402%,12.5%);fill-opacity:1;" d="M 22.628906 65.035156 C 23.257813 65.503906 24.042969 65.503906 24.671875 64.878906 C 25.457031 64.40625 26.082031 63.308594 26.082031 62.523438 C 26.242188 61.582031 25.613281 60.953125 24.828125 60.796875 C 23.257813 60.640625 21.21875 66.132813 18.078125 64.09375 C 17.292969 63.308594 16.980469 62.367188 16.980469 61.269531 C 17.136719 60.011719 18.550781 57.8125 19.648438 57.5 C 20.433594 57.34375 21.21875 57.34375 21.6875 57.8125 L 21.058594 59.070313 C 20.433594 58.601563 19.648438 58.757813 19.175781 59.226563 C 18.707031 59.855469 18.234375 60.796875 18.390625 61.738281 C 18.550781 62.523438 18.863281 62.835938 19.335938 62.835938 C 21.375 62.992188 23.101563 57.65625 25.925781 59.539063 C 26.867188 60.167969 27.496094 61.109375 27.496094 62.210938 C 27.339844 63.777344 26.242188 65.503906 25.457031 66.132813 C 24.511719 66.605469 23.570313 67.074219 21.847656 66.289063 L 22.628906 65.035156 "/>
<path style=" stroke:none;fill-rule:evenodd;fill:rgb(13.699341%,12.199402%,12.5%);fill-opacity:1;" d="M 41.78125 42.273438 L 37.699219 46.671875 L 30.792969 39.921875 L 34.558594 35.683594 L 35.5 36.46875 L 32.519531 39.765625 L 34.558594 41.648438 L 37.386719 38.664063 L 38.328125 39.449219 L 35.5 42.589844 L 37.699219 44.785156 L 40.839844 41.332031 L 41.78125 42.273438 "/>
<path style=" stroke:none;fill-rule:evenodd;fill:rgb(13.699341%,12.199402%,12.5%);fill-opacity:1;" d="M 60.613281 18.730469 L 64.226563 26.738281 L 63.125 27.207031 L 59.515625 19.203125 L 56.847656 20.457031 L 56.378906 19.515625 L 62.96875 16.535156 L 63.28125 17.476563 L 60.613281 18.730469 "/>
<path style=" stroke:none;fill-rule:evenodd;fill:rgb(13.699341%,12.199402%,12.5%);fill-opacity:1;" d="M 66.894531 25.324219 L 63.910156 16.0625 L 65.792969 15.433594 L 71.289063 21.871094 L 71.601563 13.394531 L 73.484375 12.765625 L 76.941406 21.871094 L 75.683594 22.339844 L 72.859375 14.648438 L 72.386719 23.597656 L 71.289063 23.910156 L 65.636719 17.160156 L 68.148438 24.851563 L 66.894531 25.324219 "/>
<path style=" stroke:none;fill-rule:evenodd;fill:rgb(13.699341%,12.199402%,12.5%);fill-opacity:1;" d="M 84.160156 20.300781 L 78.195313 21.714844 L 76.46875 12.136719 L 81.960938 10.882813 L 82.277344 12.136719 L 77.882813 12.921875 L 78.507813 15.75 L 82.589844 14.808594 L 82.902344 16.0625 L 78.664063 17.003906 L 79.292969 20.144531 L 83.847656 19.203125 L 84.160156 20.300781 "/>
<path style=" stroke:none;fill-rule:evenodd;fill:rgb(13.699341%,12.199402%,12.5%);fill-opacity:1;" d="M 136.269531 26.894531 C 135.328125 27.835938 133.914063 27.992188 132.972656 27.363281 C 131.40625 26.421875 131.09375 24.226563 132.191406 22.496094 C 133.289063 20.613281 135.484375 19.828125 136.898438 20.769531 C 138.15625 21.398438 138.46875 22.8125 137.996094 24.066406 L 139.097656 24.695313 C 139.882813 22.96875 139.410156 20.929688 137.683594 19.828125 C 135.171875 18.261719 132.660156 19.515625 131.246094 21.554688 C 129.679688 24.066406 129.835938 27.050781 132.03125 28.304688 C 133.914063 29.402344 136.113281 28.933594 137.367188 27.519531 L 136.269531 26.894531 "/>
<path style=" stroke:none;fill-rule:evenodd;fill:rgb(13.699341%,12.199402%,12.5%);fill-opacity:1;" d="M 172.53125 70.214844 C 171.273438 70.371094 170.175781 69.585938 169.703125 68.488281 C 169.074219 66.761719 170.332031 64.878906 172.371094 64.25 C 174.253906 63.464844 176.453125 64.25 177.082031 65.976563 C 177.394531 67.074219 176.921875 68.644531 175.667969 69.117188 L 176.140625 70.371094 C 177.867188 69.585938 178.964844 67.546875 178.179688 65.503906 C 177.238281 63.152344 174.570313 62.210938 172.214844 62.992188 C 169.390625 63.777344 167.507813 66.132813 168.449219 68.644531 C 169.074219 70.6875 171.117188 71.628906 173 71.46875 L 172.53125 70.214844 "/>
<path style=" stroke:none;fill-rule:evenodd;fill:rgb(13.699341%,12.199402%,12.5%);fill-opacity:1;" d="M 157.148438 65.664063 C 155.105469 61.425781 151.96875 57.34375 148.984375 53.578125 C 130.933594 33.171875 104.566406 24.382813 78.039063 31.757813 C 57.632813 36.78125 37.542969 55.773438 31.578125 76.179688 L 33.617188 77.121094 C 35.1875 72.253906 37.226563 67.390625 40.210938 62.835938 C 46.019531 68.488281 52.453125 73.039063 59.203125 76.492188 C 58.730469 78.691406 58.261719 82.300781 58.105469 88.265625 L 60.457031 89.363281 C 60.457031 83.871094 60.929688 79.160156 61.242188 77.59375 C 71.917969 83.085938 83.6875 85.597656 96.089844 86.226563 L 96.089844 94.074219 L 98.285156 94.074219 L 98.285156 86.066406 C 110.527344 85.910156 121.675781 83.398438 132.03125 78.535156 C 132.660156 82.300781 132.816406 85.910156 132.660156 90.148438 L 134.859375 89.363281 C 135.171875 85.753906 134.859375 81.359375 134.386719 77.433594 C 141.136719 73.980469 147.730469 69.585938 153.695313 64.09375 C 156.519531 68.644531 158.402344 73.511719 159.972656 78.535156 L 162.011719 77.433594 C 160.601563 73.351563 159.1875 69.429688 157.148438 65.664063 Z M 91.222656 31.757813 C 82.117188 36.625 74.742188 43.375 68.933594 52.007813 C 63.441406 49.023438 61.402344 47.453125 58.261719 43.84375 C 67.835938 36.625 78.824219 32.699219 91.222656 31.757813 Z M 95.933594 31.757813 L 95.933594 59.855469 C 87.140625 59.699219 78.507813 57.34375 70.972656 53.261719 C 76.941406 43.53125 91.222656 32.699219 95.933594 31.757813 Z M 59.515625 74.140625 C 53.238281 70.84375 46.960938 66.605469 41.621094 60.796875 C 45.234375 55.144531 50.726563 49.339844 56.21875 45.101563 C 59.203125 48.554688 62.65625 51.222656 67.679688 53.890625 C 63.910156 60.324219 60.929688 66.917969 59.515625 74.140625 Z M 61.714844 75.394531 C 62.8125 68.175781 65.792969 61.425781 69.5625 55.144531 C 77.722656 59.226563 86.355469 61.738281 95.933594 62.367188 L 96.089844 83.714844 C 83.53125 83.714844 72.230469 80.417969 61.714844 75.394531 Z M 135.800781 44.316406 C 132.503906 48.082031 129.679688 50.121094 124.8125 52.632813 C 119.320313 44.316406 111.3125 36.625 102.839844 31.757813 C 114.925781 32.855469 126.066406 37.253906 135.800781 44.316406 Z M 98.285156 31.914063 C 107.546875 36.625 117.121094 44.472656 122.773438 53.890625 C 114.453125 59.226563 104.40625 59.855469 98.285156 59.855469 Z M 98.285156 83.714844 L 98.285156 62.367188 C 106.289063 62.210938 115.394531 60.796875 124.183594 55.929688 C 127.796875 62.210938 130.464844 68.960938 131.5625 76.335938 C 121.359375 81.046875 110.371094 84.027344 98.285156 83.714844 Z M 133.914063 75.238281 C 132.347656 68.175781 129.992188 61.269531 126.226563 54.988281 C 130.777344 52.164063 133.914063 49.96875 137.839844 46.042969 C 143.648438 50.59375 148.828125 56.089844 152.28125 62.367188 C 146.628906 67.703125 140.351563 71.785156 133.914063 75.238281 "/>
<path style=" stroke:none;fill-rule:evenodd;fill:rgb(13.699341%,12.199402%,12.5%);fill-opacity:1;" d="M 94.988281 100.820313 C 94.988281 100.820313 95.148438 103.488281 92.949219 103.488281 C 90.910156 103.488281 90.910156 101.605469 90.910156 100.820313 L 91.851563 100.820313 C 91.851563 100.820313 91.535156 102.707031 93.105469 102.707031 C 94.046875 102.707031 94.046875 101.605469 94.046875 100.820313 L 94.988281 100.820313 "/>
<path style=" stroke:none;fill-rule:evenodd;fill:rgb(13.699341%,12.199402%,12.5%);fill-opacity:1;" d="M 173.3125 106.316406 C 173.785156 103.804688 176.609375 102.546875 179.277344 103.019531 C 181.632813 103.488281 183.671875 105.21875 183.203125 108.199219 C 182.890625 110.710938 180.0625 111.96875 177.550781 111.496094 C 175.039063 111.023438 172.84375 109.296875 173.3125 106.316406 Z M 177.867188 110.398438 C 180.0625 110.710938 181.789063 109.613281 182.105469 107.726563 C 182.261719 106.003906 180.847656 104.433594 178.808594 104.117188 C 176.765625 103.804688 174.726563 105.058594 174.570313 106.785156 C 174.253906 108.511719 175.824219 110.082031 177.867188 110.398438 "/>
<path style=" stroke:none;fill-rule:evenodd;fill:rgb(13.699341%,12.199402%,12.5%);fill-opacity:1;" d="M 169.546875 123.269531 L 179.90625 122.640625 L 179.4375 124.050781 L 177.082031 124.210938 L 175.199219 128.449219 L 177.082031 130.332031 L 176.609375 131.585938 L 169.074219 124.523438 Z M 175.511719 124.210938 L 170.488281 124.367188 L 174.253906 127.664063 Z M 175.511719 124.210938 "/>
<path style=" stroke:none;fill-rule:evenodd;fill:rgb(13.699341%,12.199402%,12.5%);fill-opacity:1;" d="M 175.667969 133.785156 C 174.253906 133.941406 173.3125 132.214844 171.429688 132.683594 L 170.019531 135.195313 L 173.785156 137.394531 L 173.15625 138.652344 L 164.679688 133.941406 L 166.5625 130.332031 C 167.507813 128.289063 169.546875 128.449219 170.488281 129.074219 C 171.585938 129.859375 171.585938 130.644531 171.585938 131.273438 C 173.15625 130.800781 174.726563 132.527344 176.140625 132.371094 Z M 170.175781 132.371094 C 170.960938 130.644531 169.074219 129.074219 167.820313 130.960938 L 166.5625 133.3125 L 168.761719 134.726563 L 170.175781 132.371094 "/>
<path style=" stroke:none;fill-rule:evenodd;fill:rgb(13.699341%,12.199402%,12.5%);fill-opacity:1;" d="M 124.65625 169.101563 L 131.875 176.636719 L 130.621094 177.261719 L 128.894531 175.378906 L 124.5 176.949219 L 124.339844 179.617188 L 123.085938 179.929688 L 123.558594 169.574219 Z M 127.953125 174.4375 L 124.65625 170.828125 L 124.5 175.535156 Z M 127.953125 174.4375 "/>
<path style=" stroke:none;fill-rule:evenodd;fill:rgb(13.699341%,12.199402%,12.5%);fill-opacity:1;" d="M 137.996094 168.160156 C 138.625 169.574219 138.9375 171.925781 137.839844 173.179688 C 136.429688 174.75 134.546875 175.378906 132.660156 176.320313 L 128.421875 167.53125 C 130.308594 166.589844 133.132813 164.863281 135.484375 165.804688 C 136.742188 166.277344 137.367188 167.058594 137.996094 168.160156 Z M 130.308594 168.160156 L 133.445313 174.59375 C 134.546875 173.964844 136.429688 173.023438 136.898438 171.769531 C 137.367188 170.355469 137.054688 169.414063 136.113281 168 C 135.171875 166.433594 132.503906 166.746094 130.308594 168.160156 "/>
<path style=" stroke:none;fill-rule:evenodd;fill:rgb(13.699341%,12.199402%,12.5%);fill-opacity:1;" d="M 105.507813 178.832031 C 105.507813 180.402344 104.878906 182.597656 103.308594 183.382813 C 101.425781 184.328125 99.382813 184.011719 97.34375 184.167969 L 97.03125 174.4375 C 99.542969 174.28125 102.210938 173.652344 104.25 175.695313 C 105.191406 176.636719 105.507813 177.578125 105.507813 178.832031 Z M 98.601563 175.695313 L 98.757813 182.757813 C 100.011719 182.757813 102.210938 182.757813 103.152344 181.65625 C 104.09375 180.558594 104.09375 179.617188 103.9375 178.046875 C 103.621094 176.164063 101.109375 175.378906 98.601563 175.695313 "/>
<path style=" stroke:none;fill-rule:evenodd;fill:rgb(13.699341%,12.199402%,12.5%);fill-opacity:1;" d="M 92.792969 174.28125 L 96.402344 184.011719 L 94.988281 184.011719 L 94.046875 181.65625 L 89.496094 181.34375 L 88.242188 183.699219 L 86.984375 183.542969 L 91.535156 174.125 Z M 93.578125 180.402344 L 92.007813 175.851563 L 89.96875 180.089844 Z M 93.578125 180.402344 "/>
<path style=" stroke:none;fill-rule:evenodd;fill:rgb(13.699341%,12.199402%,12.5%);fill-opacity:1;" d="M 83.847656 183.070313 C 83.21875 181.972656 84.628906 180.402344 83.6875 178.832031 L 80.863281 178.203125 L 79.921875 182.441406 L 78.507813 182.128906 L 80.707031 172.710938 L 84.628906 173.496094 C 86.828125 173.808594 87.296875 175.851563 86.984375 176.949219 C 86.515625 178.203125 85.730469 178.363281 85.101563 178.675781 C 85.886719 180.089844 84.785156 181.972656 85.257813 183.382813 Z M 83.6875 177.578125 C 85.574219 177.734375 86.515625 175.535156 84.316406 174.75 L 81.648438 174.28125 L 81.175781 176.792969 L 83.6875 177.578125 "/>
<path style=" stroke:none;fill-rule:evenodd;fill:rgb(13.699341%,12.199402%,12.5%);fill-opacity:1;" d="M 57.003906 163.449219 L 55.59375 173.808594 L 54.335938 173.023438 L 54.652344 170.671875 L 50.726563 168.160156 L 48.6875 169.726563 L 47.429688 168.945313 L 55.90625 162.824219 Z M 54.808594 169.257813 L 55.59375 164.546875 L 51.824219 167.375 Z M 54.808594 169.257813 "/>
<path style=" stroke:none;fill-rule:evenodd;fill:rgb(13.699341%,12.199402%,12.5%);fill-opacity:1;" d="M 35.972656 159.839844 C 34.089844 157.957031 34.714844 154.816406 36.597656 153.089844 C 38.484375 151.207031 40.996094 150.734375 43.191406 152.777344 C 45.074219 154.503906 44.605469 157.484375 42.566406 159.367188 C 40.839844 161.09375 38.167969 161.878906 35.972656 159.839844 Z M 41.9375 158.425781 C 43.507813 156.699219 43.507813 154.660156 42.25 153.40625 C 40.839844 152.148438 38.640625 152.464844 37.226563 154.03125 C 35.816406 155.601563 35.660156 157.800781 37.070313 159.054688 C 38.328125 160.152344 40.523438 159.839844 41.9375 158.425781 "/>
<path style=" stroke:none;fill-rule:evenodd;fill:rgb(13.699341%,12.199402%,12.5%);fill-opacity:1;" d="M 32.046875 139.589844 L 26.398438 148.382813 L 25.613281 147.28125 L 26.867188 145.085938 L 24.355469 141.160156 L 21.847656 141.632813 L 21.058594 140.535156 L 31.265625 138.492188 Z M 27.652344 143.988281 L 30.320313 139.90625 L 25.769531 140.847656 Z M 27.652344 143.988281 "/>
<path style=" stroke:none;fill-rule:evenodd;fill:rgb(13.699341%,12.199402%,12.5%);fill-opacity:1;" d="M 15.722656 129.074219 C 16.351563 127.976563 18.390625 128.289063 19.335938 126.5625 L 18.390625 123.894531 L 14.3125 125.308594 L 13.839844 123.894531 L 22.945313 120.914063 L 24.355469 124.679688 C 25.296875 126.722656 23.730469 128.289063 22.628906 128.449219 C 21.375 128.761719 20.746094 128.132813 20.117188 127.820313 C 19.488281 129.230469 17.136719 129.230469 16.351563 130.332031 Z M 20.433594 126.09375 C 21.21875 127.820313 23.570313 127.347656 23.101563 125.152344 L 22.160156 122.640625 L 19.648438 123.425781 L 20.433594 126.09375 "/>
<path style=" stroke:none;fill-rule:evenodd;fill:rgb(13.699341%,12.199402%,12.5%);fill-opacity:1;" d="M 33.148438 43.6875 C 34.558594 44.628906 35.816406 46.511719 35.660156 48.238281 C 35.1875 50.28125 33.773438 51.691406 32.675781 53.421875 L 24.671875 48.082031 C 25.769531 46.199219 27.339844 43.21875 29.851563 42.902344 C 31.105469 42.746094 32.207031 43.058594 33.148438 43.6875 Z M 26.554688 47.613281 L 32.363281 51.535156 C 33.148438 50.4375 34.402344 48.710938 34.089844 47.453125 C 33.617188 45.886719 32.988281 45.414063 31.578125 44.628906 C 29.851563 43.6875 27.652344 45.257813 26.554688 47.613281 "/>
<path style=" stroke:none;fill-rule:evenodd;fill:rgb(13.699341%,12.199402%,12.5%);fill-opacity:1;" d="M 43.035156 41.019531 L 36.285156 34.269531 C 37.542969 32.855469 39.425781 30.972656 40.839844 30.660156 C 41.78125 30.660156 42.40625 30.816406 43.035156 31.289063 C 43.820313 32.074219 44.132813 33.015625 43.820313 34.113281 C 43.347656 35.210938 42.09375 35.996094 41.308594 36.9375 L 44.132813 40.078125 Z M 38.484375 33.957031 L 40.367188 35.839844 C 40.996094 35.054688 42.40625 34.429688 42.25 33.328125 C 41.464844 30.816406 39.269531 33.015625 38.484375 33.957031 "/>
<path style=" stroke:none;fill-rule:evenodd;fill:rgb(13.699341%,12.199402%,12.5%);fill-opacity:1;" d="M 44.917969 27.050781 L 53.867188 32.386719 L 52.765625 33.328125 L 50.570313 31.914063 L 46.800781 34.585938 L 47.273438 37.097656 L 46.175781 37.878906 L 43.820313 27.675781 Z M 49.3125 31.289063 L 45.390625 28.621094 L 46.332031 33.328125 Z M 49.3125 31.289063 "/>
<path style=" stroke:none;fill-rule:evenodd;fill:rgb(13.699341%,12.199402%,12.5%);fill-opacity:1;" d="M 59.046875 28.933594 C 57.632813 28.621094 57.632813 26.421875 55.75 25.953125 L 53.394531 27.519531 L 55.59375 31.132813 L 54.492188 32.074219 L 49.3125 23.753906 L 52.609375 21.554688 C 54.492188 20.300781 56.21875 21.398438 56.691406 22.339844 C 57.320313 23.597656 57.003906 24.226563 56.691406 24.851563 C 58.261719 25.324219 58.730469 27.519531 60.144531 27.992188 Z M 54.964844 25.007813 C 56.378906 23.910156 55.433594 21.714844 53.394531 22.65625 L 51.195313 24.226563 L 52.609375 26.421875 L 54.964844 25.007813 "/>
<path style=" stroke:none;fill-rule:evenodd;fill:rgb(13.699341%,12.199402%,12.5%);fill-opacity:1;" d="M 112.726563 21.242188 C 110.214844 20.613281 109.273438 17.632813 109.902344 15.121094 C 110.6875 12.765625 112.414063 10.882813 115.394531 11.667969 C 117.90625 12.136719 119.003906 14.964844 118.21875 17.632813 C 117.59375 19.984375 115.710938 22.027344 112.726563 21.242188 Z M 117.277344 17.160156 C 117.75 14.964844 116.808594 13.078125 114.925781 12.765625 C 113.199219 12.296875 111.472656 13.707031 111 15.75 C 110.527344 17.632813 111.472656 19.828125 113.199219 20.144531 C 114.925781 20.613281 116.648438 19.203125 117.277344 17.160156 "/>
<path style=" stroke:none;fill-rule:evenodd;fill:rgb(13.699341%,12.199402%,12.5%);fill-opacity:1;" d="M 140.039063 32.855469 C 137.996094 31.289063 138.3125 28.148438 140.039063 26.109375 C 141.765625 24.226563 144.117188 23.4375 146.628906 25.324219 C 148.515625 26.894531 148.355469 29.875 146.628906 31.914063 C 144.902344 33.800781 142.394531 34.742188 140.039063 32.855469 Z M 145.847656 30.972656 C 147.257813 29.246094 147.101563 27.207031 145.6875 26.109375 C 144.277344 25.007813 142.078125 25.480469 140.820313 27.050781 C 139.566406 28.777344 139.566406 30.972656 140.980469 32.074219 C 142.394531 33.171875 144.589844 32.699219 145.847656 30.972656 "/>
<path style=" stroke:none;fill-rule:evenodd;fill:rgb(13.699341%,12.199402%,12.5%);fill-opacity:1;" d="M 166.722656 63.464844 C 167.191406 62.210938 169.234375 62.367188 169.859375 60.484375 L 168.605469 57.972656 L 164.679688 60.011719 L 164.054688 58.757813 L 172.6875 54.363281 L 174.570313 57.8125 C 175.824219 59.699219 174.414063 61.425781 173.472656 61.894531 C 172.214844 62.367188 171.585938 61.894531 170.960938 61.582031 C 170.488281 63.152344 168.136719 63.464844 167.507813 64.722656 Z M 170.960938 59.855469 C 171.902344 61.269531 174.253906 60.640625 173.472656 58.601563 L 172.058594 56.246094 L 169.703125 57.34375 L 170.960938 59.855469 "/>
</g>
</svg>
