<?xml version="1.0" encoding="utf-8"?>
<!-- Generator: Adobe Illustrator 24.2.0, SVG Export Plug-In . SVG Version: 6.00 Build 0)  -->
<svg version="1.1" id="Layer_2_1_" xmlns="http://www.w3.org/2000/svg" xmlns:xlink="http://www.w3.org/1999/xlink" x="0px" y="0px"
	 viewBox="0 0 512 512" enable-background="new 0 0 512 512" xml:space="preserve">
<g>
	<rect x="31" y="171.147" fill="#00C7FD" width="32.573" height="32.573"/>
	<path fill="#1073C2" d="M62.762,340.853V223.427H31.811v117.311h30.951V340.853z M267.708,342.012v-28.748
		c-4.521,0-8.346-0.232-11.128-0.696c-3.246-0.464-5.68-1.623-7.303-3.246c-1.623-1.623-2.666-3.941-3.246-7.071
		c-0.464-2.898-0.696-6.723-0.696-11.36v-40.92h22.372v-26.546h-22.372v-45.672h-30.951V291.24c0,9.621,0.811,17.736,2.434,24.227
		c1.623,6.376,4.405,11.592,8.23,15.533s8.926,6.723,15.07,8.462c6.26,1.739,14.142,2.55,23.532,2.55L267.708,342.012
		L267.708,342.012z M444.833,340.853V168.713h-30.951v172.141H444.833z M184.594,235.019c-8.578-9.274-20.634-13.91-35.935-13.91
		c-7.419,0-14.258,1.507-20.286,4.521c-6.144,3.014-11.244,7.187-15.417,12.519l-1.623,2.202v-1.971v-14.954H80.845v117.311h30.719
		v-62.481v4.289c0-0.696,0-1.391,0-2.087c0.348-11.012,3.014-19.127,8.114-24.343c5.448-5.564,12.056-8.346,19.59-8.346
		c8.926,0,15.765,2.782,20.286,8.114c4.405,5.332,6.723,12.867,6.723,22.488l0,0v0.348l0,0l0,0v62.017h31.182v-66.538
		C197.577,257.507,193.172,244.292,184.594,235.019z M397.886,281.966c0-8.462-1.507-16.345-4.405-23.764
		c-3.014-7.303-7.187-13.794-12.403-19.359c-5.332-5.564-11.708-9.853-19.127-12.983c-7.419-3.13-15.649-4.637-24.575-4.637
		c-8.462,0-16.461,1.623-23.879,4.753c-7.419,3.246-13.91,7.535-19.359,12.983c-5.448,5.448-9.853,11.94-12.983,19.359
		c-3.246,7.419-4.753,15.417-4.753,23.879s1.507,16.461,4.521,23.879c3.014,7.419,7.303,13.91,12.635,19.359
		c5.332,5.448,11.94,9.853,19.59,12.983c7.651,3.246,16.113,4.869,25.155,4.869c26.198,0,42.427-11.94,52.164-23.068l-22.257-16.924
		c-4.637,5.564-15.765,13.099-29.675,13.099c-8.694,0-15.881-1.971-21.329-6.028c-5.448-3.941-9.158-9.505-11.128-16.345
		l-0.348-1.043h92.156L397.886,281.966L397.886,281.966z M305.961,271.185c0-8.578,9.853-23.532,31.066-23.648
		c21.213,0,31.182,14.954,31.182,23.532L305.961,271.185z M480.073,326.015c-0.58-1.391-1.391-2.55-2.434-3.594
		c-1.043-1.043-2.202-1.855-3.594-2.434c-1.391-0.58-2.898-0.927-4.405-0.927c-1.623,0-3.014,0.348-4.405,0.927
		c-1.391,0.58-2.55,1.391-3.594,2.434s-1.855,2.202-2.434,3.594c-0.58,1.391-0.927,2.898-0.927,4.405
		c0,1.623,0.348,3.014,0.927,4.405c0.58,1.391,1.391,2.55,2.434,3.594c1.043,1.043,2.202,1.855,3.594,2.434
		c1.391,0.58,2.898,0.927,4.405,0.927c1.623,0,3.014-0.348,4.405-0.927c1.391-0.58,2.55-1.391,3.594-2.434s1.855-2.202,2.434-3.594
		c0.58-1.391,0.927-2.898,0.927-4.405S480.652,327.406,480.073,326.015z M478.218,334.13c-0.464,1.159-1.159,2.202-1.971,3.014
		c-0.811,0.811-1.855,1.507-3.014,1.971c-1.159,0.464-2.318,0.696-3.709,0.696c-1.275,0-2.55-0.232-3.709-0.696
		c-1.159-0.464-2.202-1.159-3.014-1.971c-0.811-0.811-1.507-1.855-1.971-3.014c-0.464-1.159-0.696-2.318-0.696-3.709
		c0-1.275,0.232-2.55,0.696-3.709c0.464-1.159,1.159-2.202,1.971-3.014s1.855-1.507,3.014-1.971
		c1.159-0.464,2.318-0.696,3.709-0.696c1.275,0,2.55,0.232,3.709,0.696c1.159,0.464,2.202,1.159,3.014,1.971
		c0.811,0.811,1.507,1.855,1.971,3.014c0.464,1.159,0.696,2.318,0.696,3.709S478.682,332.971,478.218,334.13z M471.726,331.464
		c0.927-0.116,1.623-0.464,2.202-1.043s0.927-1.391,0.927-2.55c0-1.275-0.348-2.202-1.159-2.898
		c-0.696-0.696-1.971-1.043-3.478-1.043h-5.1v13.099h2.434v-5.332h1.739l3.246,5.332h2.55L471.726,331.464z M470.451,329.493
		c-0.348,0-0.695,0-1.159,0h-1.739v-3.709h1.739c0.348,0,0.696,0,1.159,0c0.348,0,0.696,0.116,1.043,0.232s0.58,0.348,0.696,0.58
		c0.232,0.232,0.232,0.58,0.232,1.043c0,0.464-0.116,0.811-0.232,1.043c-0.232,0.232-0.464,0.464-0.696,0.58
		C471.147,329.377,470.799,329.493,470.451,329.493z"/>
</g>
</svg>
